<?xml version="1.0" encoding="UTF-8" standalone="no"?>
<!-- Created with Inkscape (http://www.inkscape.org/) -->

<svg
   width="501.15552"
   height="401.36121"
   viewBox="0 0 501.15552 401.36121"
   version="1.1"
   id="svg5"
   inkscape:version="1.2.1 (9c6d41e410, 2022-07-14)"
   sodipodi:docname="EnergyFlow.svg"
   xmlns:inkscape="http://www.inkscape.org/namespaces/inkscape"
   xmlns:sodipodi="http://sodipodi.sourceforge.net/DTD/sodipodi-0.dtd"
   xmlns="http://www.w3.org/2000/svg"
   xmlns:svg="http://www.w3.org/2000/svg">
  <sodipodi:namedview
     id="namedview7"
     pagecolor="#ffffff"
     bordercolor="#666666"
     borderopacity="1.0"
     inkscape:pageshadow="2"
     inkscape:pageopacity="0.0"
     inkscape:pagecheckerboard="false"
     inkscape:document-units="px"
     showgrid="false"
     inkscape:zoom="4.0014918"
     inkscape:cx="375.60992"
     inkscape:cy="260.02802"
     inkscape:window-width="3840"
     inkscape:window-height="2081"
     inkscape:window-x="2391"
     inkscape:window-y="-9"
     inkscape:window-maximized="1"
     inkscape:current-layer="layer5"
     fit-margin-top="0"
     fit-margin-left="0"
     fit-margin-right="0"
     fit-margin-bottom="0"
     units="px"
     width="576px"
     scale-x="0.36458"
     inkscape:showpageshadow="2"
     inkscape:deskcolor="#d1d1d1" />
  <defs
     id="defs2">
    <linearGradient
       id="linearGradient24308"
       inkscape:swatch="solid">
      <stop
         style="stop-color:#ffffff;stop-opacity:1;"
         offset="0"
         id="stop24306" />
    </linearGradient>
  </defs>
  <g
     inkscape:groupmode="layer"
     id="layer9"
     inkscape:label="Line"
     style="display:inline"
     transform="translate(-112.69382,-1.200007)">
    <path
       style="fill:none;stroke:#000000;stroke-width:3;stroke-linecap:butt;stroke-linejoin:miter;stroke-miterlimit:4;stroke-dasharray:none;stroke-opacity:1"
       d="M 193.6702,321.17445 532.80854,82.585431"
       id="path2058" />
    <path
       style="fill:none;stroke:#000000;stroke-width:3;stroke-linecap:butt;stroke-linejoin:miter;stroke-miterlimit:4;stroke-dasharray:none;stroke-opacity:1"
       d="M 193.74368,82.484838 532.79933,321.20919"
       id="path2058-3" />
  </g>
  <g
     inkscape:groupmode="layer"
     id="layer8"
     inkscape:label="BubbleHome"
     style="display:inline"
     transform="translate(-112.69382,-1.200007)">
    <ellipse
       style="fill:#e1e1e1;fill-opacity:1;stroke:#000000;stroke-width:0.799998;stroke-miterlimit:4;stroke-dasharray:none"
       id="path2555"
       cx="248.34328"
       cy="121.94776"
       rx="8.8634176"
       ry="8.8734646">
      <animateMotion
         id="bubble_home_anim"
         dur="2.05s"
         values="0,0; 60, 40"
         repeatCount="indefinite" />
    </ellipse>
  </g>
  <g
     inkscape:groupmode="layer"
     id="layer10"
     inkscape:label="BubbleGrid"
     style="display:inline"
     transform="translate(-112.69382,-1.200007)">
    <ellipse
       style="fill:#e1e1e1;fill-opacity:1;stroke:#000000;stroke-width:0.799998;stroke-miterlimit:4;stroke-dasharray:none"
       id="path2555-3"
       cx="478.90842"
       cy="121.94776"
       rx="8.8634043"
       ry="8.8734646">
      <animateMotion
         id="bubble_grid_anim"
         dur="1.5s"
         values="0,0; -60,40"
         repeatCount="indefinite"
         style="fill-opacity:1;fill:url(#linearGradient4873)" />
    </ellipse>
  </g>
  <g
     inkscape:groupmode="layer"
     id="layer12"
     inkscape:label="BubbleSolar"
     style="display:inline"
     transform="translate(-112.69382,-1.200007)">
    <ellipse
       style="display:inline;fill:#e1e1e1;fill-opacity:1;stroke:#000000;stroke-width:0.799998;stroke-miterlimit:4;stroke-dasharray:none"
       id="path2555-3-1-4"
       cx="248.34328"
       cy="282.52295"
       rx="8.8634043"
       ry="8.8734646">
      <animateMotion
         id="bubble_solar_anim"
         dur="1.9s"
         values="0,0; 60,-40"
         repeatCount="indefinite" />
    </ellipse>
  </g>
  <g
     inkscape:groupmode="layer"
     id="layer11"
     inkscape:label="BubbleBattery"
     style="display:inline"
     transform="translate(-112.69382,-1.200007)">
    <ellipse
       style="display:inline;fill:#e1e1e1;fill-opacity:1;stroke:#000000;stroke-width:0.799998;stroke-miterlimit:4;stroke-dasharray:none"
       id="path2555-3-1"
       cx="478.90842"
       cy="296.52295"
       rx="8.8634043"
       ry="8.8734646">
      <animateMotion
         id="bubble_bat_anim"
         dur="2.1s"
         values="0,-10; -60, -60"
         repeatCount="indefinite" />
    </ellipse>
  </g>
  <g
     inkscape:label="BG"
     inkscape:groupmode="layer"
     id="layer1"
     style="display:inline"
     transform="translate(-113.17944,-171.44852)" />
  <g
     inkscape:groupmode="layer"
     id="layer2"
     inkscape:label="Circle"
     style="display:inline"
     transform="translate(-113.17944,-171.44852)" />
  <g
     inkscape:groupmode="layer"
     id="layer4"
     inkscape:label="Grid"
     transform="translate(-113.17944,-171.44852)"
     style="display:inline">
    <ellipse
       style="display:inline;fill:#ffffff;stroke:#000000;stroke-width:3;stroke-miterlimit:4;stroke-dasharray:none"
       id="path1114-5"
       cx="534.17499"
       cy="251.69775"
       rx="78.659958"
       ry="78.749229" />
    <path
       style="display:inline;fill:#000000;stroke-width:0.0364228"
       d="m 518.02206,276.77583 c -1.08614,-0.0463 -2.19154,-0.14082 -2.45648,-0.20938 -0.46706,-0.1206 -0.48566,-0.13891 -0.61425,-0.60673 -0.18748,-0.68278 -0.189,-3.70275 -8.3e-4,-4.29156 0.22544,-0.70847 0.48143,-0.78552 3.06922,-0.92385 1.19358,-0.0638 2.23995,-0.14442 2.32534,-0.17974 0.11939,-0.0489 0.16974,-0.26815 0.21975,-0.95076 0.20232,-2.77383 1.95642,-22.93495 2.41763,-27.79383 0.45338,-4.77663 0.5506,-6.93961 0.56572,-12.58551 l 0.008,-4.87027 -10.37023,-0.0266 -10.37025,-0.0227 -0.0414,2.09801 c -0.0435,2.22615 -0.12913,2.70496 -0.56828,3.17249 -0.29515,0.31407 -0.69869,0.45883 -0.93216,0.3338 -0.48644,-0.26059 -0.7314,-2.14318 -0.67549,-5.19129 0.0303,-1.7712 0.06,-2.05402 0.23569,-2.44005 0.1955,-0.4283 0.21632,-0.4423 1.10492,-0.73665 1.43032,-0.47373 8.03878,-3.14055 17.47498,-7.05209 l 4.14225,-1.7171 0.0227,-3.92541 0.0227,-3.92542 h -10.40485 -10.40488 v 1.71819 c 0,2.43567 -0.20763,3.32541 -0.86684,3.71524 -0.59534,0.35239 -0.9017,0.099 -1.13283,-0.93655 -0.17967,-0.8054 -0.27544,-5.2114 -0.13027,-5.99174 0.16288,-0.87581 0.29173,-0.99237 1.60643,-1.45156 3.13341,-1.0948 20.19373,-8.16985 21.41038,-8.87908 0.58914,-0.34364 3.62239,-3.39056 6.03662,-6.06427 1.97587,-2.18814 4.40612,-4.67738 4.56662,-4.67738 0.36979,0 2.83245,2.58817 7.06743,7.4273 l 2.74411,3.13569 10.72911,4.4708 c 5.90095,2.45896 11.16824,4.67699 11.705,4.92912 1.27009,0.59647 1.24581,0.53312 1.22162,3.18288 -0.0226,2.0779 -0.14628,3.72445 -0.33758,4.36381 -0.063,0.20938 -0.21899,0.44982 -0.34629,0.53381 -0.2065,0.13547 -0.27697,0.137 -0.62342,0.0191 -0.79605,-0.28144 -0.9365,-0.82594 -0.93731,-3.63422 l -7.2e-4,-1.85646 h -10.60937 -10.60936 l 0.0739,2.57974 c 0.0406,1.41893 0.10074,3.14399 0.13332,3.83355 l 0.0599,1.2537 11.02988,4.59684 c 6.06646,2.52824 11.20129,4.67645 11.41067,4.77379 0.20913,0.0975 0.46945,0.30003 0.57798,0.45034 0.18596,0.25756 0.19664,0.39969 0.18673,2.50741 -0.0191,3.0623 -0.22089,4.63677 -0.64351,4.90555 -0.19169,0.12174 -0.63655,0.0875 -0.9478,-0.074 -0.53186,-0.2754 -0.59926,-0.60604 -0.64285,-3.15205 l -0.0406,-2.29048 h -10.63458 -10.63459 l 3.8e-4,0.60272 c 3.9e-4,0.76125 0.25498,6.08226 0.38905,8.12512 0.71464,10.91318 2.69342,34.2316 3.08435,36.34685 0.22884,1.23631 0.32772,1.29083 2.58715,1.42249 0.87855,0.0512 1.8249,0.11601 2.10306,0.14367 l 0.50577,0.05 v 2.82338 2.82345 l -2.91405,0.0622 c -4.86607,0.1036 -29.84768,0.15054 -31.95793,0.06 z m 31.43883,-2.20199 c 1.30075,-0.14387 1.61403,-0.34139 1.46702,-0.92802 -0.0723,-0.28639 -0.46667,-0.42229 -1.57724,-0.54231 -1.29499,-0.14004 -22.46021,-0.21735 -26.94557,-0.0986 -4.20614,0.11124 -4.71041,0.17306 -4.95206,0.60522 -0.12683,0.22721 -0.12512,0.27996 0.0191,0.49763 0.24324,0.37136 0.88639,0.46746 3.68247,0.55065 3.48247,0.1036 27.24691,0.0303 28.308,-0.0841 z m -6.6002,-4.04347 0.51491,-0.0675 -2.20078,-1.79331 c -4.63659,-3.77826 -6.68617,-5.3915 -6.84874,-5.39056 -0.6866,0.002 -2.38726,1.2503 -7.47798,5.48071 -1.86123,1.54669 -2.07513,1.75293 -1.83031,1.76444 3.46582,0.16313 16.61261,0.16848 17.8429,0.008 z m 2.23395,-4.70546 c -0.0583,-0.64131 -0.18443,-1.57433 -0.27921,-2.07352 l -0.17282,-0.90745 -3.55571,-0.0264 -3.55576,-0.0226 0.23984,0.2348 c 0.13179,0.12899 1.84378,1.51893 3.80411,3.08865 l 3.56424,2.85399 0.0303,-0.98985 c 0.0191,-0.54443 -0.0191,-1.51451 -0.0758,-2.15586 z m -20.47966,1.84975 c 1.10262,-0.83942 4.26579,-3.45549 5.11134,-4.2274 0.26482,-0.24238 0.44736,-0.47466 0.40539,-0.51733 -0.12054,-0.1225 -4.65189,-0.16656 -5.45677,-0.0531 -1.36026,0.19194 -1.4747,0.43386 -1.48911,3.14969 -0.008,1.94019 0.0425,2.45924 0.25083,2.45924 0.0622,0 0.59223,-0.36491 1.17821,-0.81112 z m 5.44118,-7.27892 1.10053,-0.0592 -2.64182,-2.1231 c -3.57289,-2.87129 -3.76881,-3.00818 -4.13762,-2.89098 -0.31863,0.10093 -0.52752,1.33692 -0.6387,3.77855 l -0.0622,1.36844 0.47236,0.0406 c 0.5402,0.0459 4.26825,-0.0265 5.90767,-0.1141 z m 14.08773,-0.0303 c 0.1894,-0.29511 0.27166,-0.87177 0.27203,-1.90788 3.4e-4,-1.7563 -0.25801,-3.56854 -0.50869,-3.5682 -0.18177,3e-4 -1.36859,0.92226 -4.22085,3.27882 -2.38635,1.97164 -2.60047,2.1725 -2.34368,2.19807 2.15768,0.21468 6.66297,0.21391 6.80111,-7.3e-4 z m -9.51623,-1.0078 c 0.68394,-0.49025 2.02089,-1.5744 4.77351,-3.87064 l 2.35361,-1.96354 -7.47529,0.0303 c -4.11145,0.0191 -7.50979,0.0664 -7.55191,0.10838 -0.0952,0.0952 0.64133,0.75787 2.89416,2.60724 1.75157,1.43797 4.34353,3.43997 4.45367,3.43997 0.0303,0 0.28113,-0.15893 0.55225,-0.35351 z m 7.30148,-8.40108 c -0.455,-0.57516 -2.8371,-2.85927 -5.54419,-5.31629 l -2.4867,-2.25691 -3.9643,3.96879 -3.9643,3.96878 h 8.12391 8.12378 z m -13.66035,-5.04824 2.99882,-2.98233 -2.64912,0.038 c -2.74477,0.038 -3.283,0.1059 -3.46452,0.44534 -0.2137,0.39888 -0.50165,4.84696 -0.35275,5.44098 0.0576,0.22909 0.089,0.24693 0.26673,0.1513 0.11101,-0.0592 1.55132,-1.45018 3.20061,-3.09048 z m 14.99439,2.46488 c 0.16327,-0.42876 0.10643,-2.54692 -0.10758,-4.01241 -0.11062,-0.76011 -0.21215,-1.39345 -0.22617,-1.40756 -0.008,-0.008 -1.32107,-0.008 -2.90535,0 l -2.88045,0.0226 2.31193,2.34965 c 2.38734,2.42634 3.32658,3.29213 3.57169,3.29213 0.0775,0 0.18444,-0.11105 0.23567,-0.24732 z m -0.42478,-8.2153 c -0.0303,-0.30498 -0.12472,-1.37908 -0.20874,-2.3869 -0.0841,-1.0078 -0.17165,-1.88923 -0.19399,-1.9588 -0.0833,-0.26059 -0.68912,0.25186 -3.0242,2.55853 l -2.36431,2.33562 2.92351,0.002 2.92343,0.002 -0.0557,-0.55457 z m -11.82885,0.31481 c 0.0303,-0.0303 -1.0882,-1.20351 -2.48736,-2.60506 -1.3993,-1.40161 -2.55987,-2.53252 -2.57915,-2.51325 -0.0227,0.0227 -0.11902,0.59271 -0.22129,1.27415 -0.20571,1.37341 -0.34743,3.58274 -0.24626,3.84759 0.0611,0.1593 0.24173,0.16655 2.77098,0.11199 1.48814,-0.0303 2.73117,-0.0841 2.76235,-0.11563 z m 3.67783,-0.86464 c 0.9832,-0.71542 2.63046,-2.22423 4.29357,-3.93261 l 1.52745,-1.569 -3.14437,-0.0227 c -1.72935,-0.008 -4.57282,-0.008 -6.31887,0 l -3.17449,0.0227 2.98778,3.06307 c 1.97841,2.02828 3.02408,3.03453 3.09524,2.97866 0.0592,-0.0459 0.38906,-0.28943 0.73369,-0.54012 z m 2.84127,-11.24165 c -1.90711,-1.91048 -3.5117,-3.46193 -3.56584,-3.44771 -0.0534,0.008 -0.37585,0.33001 -0.7156,0.70096 -0.33985,0.37135 -1.7041,1.82644 -3.03236,3.23357 -1.32833,1.40712 -2.49769,2.65479 -2.59867,2.77265 l -0.18349,0.21394 h 6.78168 6.78168 z m -8.09138,-1.73846 c 0.90344,-1.01337 1.39685,-1.67719 1.39685,-1.87896 0,-0.33339 -0.29098,-0.38257 -2.47124,-0.41758 l -2.15267,-0.0303 v 2.76604 2.76614 l 1.18002,-1.11422 c 0.64908,-0.61278 1.57022,-1.55188 2.04704,-2.08682 z m 12.66764,0.43831 v -2.74858 l -1.42096,7.7e-4 c -1.3301,7.2e-4 -2.79968,0.11199 -3.21417,0.24389 -0.26939,0.0852 -0.22733,0.20976 0.27128,0.80578 0.41393,0.49423 4.26646,4.44666 4.33436,4.44666 0.0191,0 0.0266,-1.23686 0.0266,-2.74856 z m -18.49565,-7.2661 c 0,-2.66941 -0.0894,-4.64432 -0.21027,-4.64432 -0.19211,0 -8.85264,3.7706 -14.45925,6.29538 -0.38536,0.17382 -0.61818,0.32999 -0.56726,0.3809 0.1789,0.1786 2.27987,0.24048 8.66251,0.25339 l 6.57463,0.008 z m 6.8431,2.20232 c 0.61424,-0.11639 0.63314,-0.13165 0.50531,-0.40876 -0.12836,-0.27841 -1.93542,-2.19343 -3.51923,-3.73021 l -1.22823,-1.19181 v 2.71397 2.71396 h 1.86532 c 1.02592,0 2.09547,-0.0437 2.37683,-0.0971 z m 11.65255,-2.64573 c 0,-1.67403 -0.038,-2.76545 -0.0936,-2.80089 -0.18749,-0.116 -4.72282,4.93144 -4.72282,5.25624 0,0.0502 0.11902,0.11752 0.26484,0.14939 0.14591,0.0303 0.30803,0.0729 0.36146,0.091 0.053,0.0191 1.01748,0.0379 2.14338,0.0406 l 2.047,0.008 z m 17.62859,2.5669 c 0.2387,-0.0379 0.42763,-0.10836 0.42052,-0.16161 -0.0227,-0.15282 -2.31675,-1.16508 -8.75318,-3.85882 -5.01466,-2.09867 -6.90826,-2.8554 -6.97593,-2.7876 -0.0761,0.0763 -0.0596,2.56444 0.0303,4.88394 l 0.0761,1.90219 1.45865,0.0265 c 3.02314,0.0607 13.32512,0.0553 13.74091,-0.008 z m -22.9373,-3.10724 c 1.14851,-1.24244 3.50131,-3.98478 3.55865,-4.1478 0.0226,-0.0568 -2.31436,-0.0914 -6.18931,-0.0914 -3.42175,0 -6.22137,0.0266 -6.22137,0.0557 0,0.0653 0.94958,1.25032 1.77183,2.21059 0.31789,0.37097 1.44339,1.55123 2.50096,2.62214 l 1.92266,1.94701 0.76913,-0.69331 c 0.42308,-0.38132 1.27241,-1.23769 1.88745,-1.90304 z m 3.2734,-7.20475 c -0.18673,-0.19877 -1.18664,-1.29472 -2.22086,-2.43508 -2.07445,-2.28762 -3.51743,-3.76124 -3.68289,-3.76124 -0.19171,0 -2.11136,2.00781 -6.01603,6.29278 l -0.24172,0.26515 h 6.25089 6.25097 z m 2.03531,-3.98323 v -2.70537 l -2.21102,0.0264 c -1.59752,0.0227 -2.24406,0.0622 -2.33028,0.14901 -0.29173,0.29282 0.60612,1.42886 2.9348,3.71389 0.85135,0.83553 1.5611,1.51906 1.57716,1.51906 0.0191,0 0.0265,-1.21749 0.0265,-2.70545 z m -15.01531,1.86057 c 0.76583,-0.81367 3.7654,-4.24154 3.8697,-4.42236 0.0649,-0.11201 -0.30765,-0.13357 -2.33601,-0.13357 h -2.41308 l 7.2e-4,1.80823 c 7.7e-4,1.96157 0.083,3.39954 0.19437,3.39954 0.0379,0 0.34667,-0.2932 0.68415,-0.652 z m -3.50215,-10.2496 c -0.0264,-1.91159 -0.0701,-3.4956 -0.0944,-3.52006 -0.094,-0.0941 -10.95035,4.60082 -14.28538,6.1779 -0.93477,0.442 -0.95474,0.45808 -0.67431,0.54247 0.52033,0.15665 3.75624,0.24543 9.47857,0.26059 l 5.62537,0.0191 z m 6.52369,3.37427 c 1.0249,-0.14826 1.03598,-0.20294 0.23264,-1.15734 -0.80422,-0.9554 -4.03369,-4.52775 -4.09314,-4.52775 -0.0227,0 -0.0406,1.30192 -0.0406,2.89324 v 2.89316 l 1.61348,-0.002 c 0.88748,-8.4e-4 1.91676,-0.0459 2.28739,-0.0994 z m 11.97841,-2.68749 c -0.0191,-1.53387 -0.0664,-2.82228 -0.10681,-2.86312 -0.0406,-0.0406 -0.27241,0.11829 -0.5153,0.35389 -0.93423,0.90644 -4.17882,4.78081 -4.17882,4.98984 0,0.0937 0.18673,0.13548 1.10787,0.24503 0.15868,0.0227 1.06233,0.0406 2.0076,0.0489 l 1.71869,0.0191 z m 17.71623,2.53445 c 0.17204,-0.0303 0.31297,-0.0982 0.31297,-0.14825 0,-0.0502 -0.37851,-0.26705 -0.8414,-0.48096 -2.88563,-1.33463 -14.4103,-6.15629 -14.71476,-6.15629 -0.20383,0 -0.24476,1.17378 -0.13865,3.95403 0.0553,1.45867 0.11862,2.70592 0.14019,2.77167 0.0264,0.0918 1.00157,0.12706 4.20884,0.15321 4.80589,0.038 10.57633,-0.008 11.03334,-0.0929 z m -24.11469,-2.14452 c 0.42808,-0.44418 1.65037,-1.76782 2.7162,-2.94146 l 1.93775,-2.13385 -6.16763,-0.0265 c -3.39217,-0.008 -6.18699,-0.002 -6.21066,0.0191 -0.0777,0.0778 2.95786,3.43725 4.5729,5.06298 l 1.57424,1.58451 0.39924,-0.37895 c 0.21937,-0.20862 0.74966,-0.74245 1.1778,-1.18667 z m 4.24236,-7.52872 c 0.66298,-0.14405 0.70856,-0.22191 0.38211,-0.65228 -1.02011,-1.34415 -5.19886,-5.99732 -5.79417,-6.45186 l -0.34704,-0.26513 -0.63603,0.66792 c -1.79155,1.88115 -5.40138,6.19041 -5.40138,6.44789 0,0.31747 2.08366,0.43075 7.17673,0.39034 2.46854,-0.0227 4.33526,-0.0748 4.61994,-0.13699 z"
       id="path1058" />
    <text
       xml:space="preserve"
       style="font-style:normal;font-variant:normal;font-weight:bold;font-stretch:normal;font-size:28.0848px;line-height:1.25;font-family:sans-serif;-inkscape-font-specification:'sans-serif Bold';text-align:center;letter-spacing:0px;word-spacing:0px;text-anchor:middle;display:inline;fill:#000000;fill-opacity:1;stroke:none;stroke-width:0.264583"
       x="533.56702"
       y="302.48993"
       id="text4765-3-3"
       transform="scale(0.999433,1.0005673)"><tspan
         sodipodi:role="line"
         id="pwr_grid"
         style="font-style:normal;font-variant:normal;font-weight:bold;font-stretch:normal;font-size:28.0848px;font-family:sans-serif;-inkscape-font-specification:'sans-serif Bold';text-align:center;text-anchor:middle;stroke-width:0.264583"
         x="533.56702"
         y="302.48993">1234 W</tspan></text>
  </g>
  <g
     inkscape:groupmode="layer"
     id="layer5"
     inkscape:label="Battery"
     transform="translate(-113.17944,-171.44852)"
     style="display:inline">
    <ellipse
       style="display:inline;fill:#ffffff;stroke:#000000;stroke-width:3;stroke-miterlimit:4;stroke-dasharray:none"
       id="path1114-5-5"
       cx="534.17499"
       cy="492.56049"
       rx="78.659958"
       ry="78.749229" />
    <text
       xml:space="preserve"
       style="font-style:normal;font-variant:normal;font-weight:bold;font-stretch:normal;font-size:28.0848px;line-height:1.25;font-family:sans-serif;-inkscape-font-specification:'sans-serif Bold';text-align:center;letter-spacing:0px;word-spacing:0px;text-anchor:middle;display:inline;fill:#000000;fill-opacity:1;stroke:none;stroke-width:0.265;stroke-dasharray:none"
       x="535.49957"
       y="543.21613"
       id="text4765-3-3-3"
       transform="scale(0.99943301,1.0005673)"><tspan
         sodipodi:role="line"
         id="pwr_bat"
         style="font-style:normal;font-variant:normal;font-weight:bold;font-stretch:normal;font-size:28.0848px;font-family:sans-serif;-inkscape-font-specification:'sans-serif Bold';text-align:center;text-anchor:middle;stroke-width:0.265;stroke-dasharray:none"
         x="535.49957"
         y="543.21613">1234 W</tspan></text>
    <rect
       style="display:inline;fill:#000000;stroke:#ffffff;stroke-width:0.265;stroke-linecap:square;paint-order:markers stroke fill"
       id="bat_state_rect"
       width="75.471855"
       height="48.481918"
       x="492.28806"
       y="461.09045"
       ry="2.8963518" />
    <path
       style="fill:#000000;stroke-width:0.140686"
       d="m 485.9978,457.97615 c 0.52845,-1.06213 1.37131,-1.95515 2.42481,-2.56939 l 1.61475,-0.94133 h 39.68416 c 43.51124,0 40.78525,-0.14554 42.83833,2.282 1.41148,1.66871 1.77761,3.40258 1.78003,8.42947 l 10e-4,4.43084 2.85033,0.14286 c 3.06848,0.15373 4.55175,0.87084 5.46641,2.64114 0.67329,1.30334 0.67329,24.50676 0,25.81 -0.91466,1.77035 -2.39793,2.4871 -5.46641,2.64123 l -2.85033,0.14324 -10e-4,4.43089 c -0.002,5.02675 -0.36867,6.7607 -1.78003,8.42933 -2.05308,2.42719 0.67295,2.28203 -42.83829,2.28203 h -39.6842 l -1.62313,-0.94625 c -1.0822,-0.63092 -1.89029,-1.49537 -2.42511,-2.59434 -0.78993,-1.62329 -0.802,-2.03366 -0.80172,-27.31611 3.4e-4,-25.37423 0.008,-25.68671 0.8104,-27.29599 z m 4.63143,53.37303 c 0.75588,0.52671 5.11186,0.59253 39.22047,0.59253 37.85991,0 38.38028,-0.008 39.13534,-0.76117 0.74985,-0.74597 0.76528,-1.2688 0.76528,-25.88339 0,-24.61462 -0.0153,-25.13743 -0.76528,-25.88343 -0.75506,-0.75116 -1.27543,-0.76119 -39.13534,-0.76119 -34.10861,0 -38.46459,0.0656 -39.22047,0.5925 l -0.85046,0.59256 v 25.45956 25.45949 z"
       id="path1363"
       sodipodi:nodetypes="cccscccscsscccscsssccsscscsccccs" />
    <text
       xml:space="preserve"
       style="font-style:normal;font-variant:normal;font-weight:bold;font-stretch:normal;font-size:21.608px;line-height:1.25;font-family:sans-serif;-inkscape-font-specification:'sans-serif Bold';text-align:center;letter-spacing:0px;word-spacing:0px;text-anchor:middle;display:inline;fill:#000000;fill-opacity:1;stroke:#ffffff;stroke-width:0.665;stroke-dasharray:none;stroke-opacity:1"
       x="528.52582"
       y="492.60117"
       id="bat_state_text"
       transform="scale(1.0011491,0.99885221)"><tspan
         sodipodi:role="line"
         id="load_bat"
         style="font-style:normal;font-variant:normal;font-weight:bold;font-stretch:normal;font-size:21.608px;font-family:sans-serif;-inkscape-font-specification:'sans-serif Bold';text-align:center;text-anchor:middle;fill:#000000;fill-opacity:1;stroke:#ffffff;stroke-width:0.665;stroke-dasharray:none;stroke-opacity:1"
         x="528.52582"
         y="492.60117">100%</tspan></text>
    <text
       xml:space="preserve"
       style="font-style:normal;font-variant:normal;font-weight:bold;font-stretch:normal;font-size:28.0848px;line-height:1.25;font-family:sans-serif;-inkscape-font-specification:'sans-serif Bold';text-align:center;letter-spacing:0px;word-spacing:0px;text-anchor:middle;display:inline;fill:#000000;fill-opacity:1;stroke:none;stroke-width:0.265;stroke-dasharray:none"
       x="521.35498"
       y="446.40656"
       id="text4765-3-3-3-9"
       transform="scale(0.99943302,1.0005673)"><tspan
         sodipodi:role="line"
         id="bat_energy"
         style="font-style:normal;font-variant:normal;font-weight:bold;font-stretch:normal;font-size:28.0848px;font-family:sans-serif;-inkscape-font-specification:'sans-serif Bold';text-align:center;text-anchor:middle;stroke-width:0.265;stroke-dasharray:none"
         x="523.23486"
         y="446.40656">1.5<tspan
   style="font-size:11px"
   id="tspan3197"> </tspan></tspan></text>
    <text
       xml:space="preserve"
       style="font-style:normal;font-weight:normal;font-size:10px;line-height:1.25;font-family:sans-serif;letter-spacing:0px;word-spacing:0px;fill:#000000;fill-opacity:1;stroke:none"
       x="553.88611"
       y="446.90973"
       id="text490"><tspan
         sodipodi:role="line"
         id="tspan488"
         x="553.88611"
         y="446.90973"
         style="font-size:10px"> kWh</tspan></text>
  </g>
  <g
     inkscape:groupmode="layer"
     id="layer6"
     inkscape:label="Solar"
     transform="translate(-113.17944,-171.44852)"
     style="display:inline">
    <ellipse
       style="display:inline;fill:#ffffff;stroke:#000000;stroke-width:3;stroke-miterlimit:4;stroke-dasharray:none"
       id="path1114-5-5-2"
       cx="193.3394"
       cy="492.56049"
       rx="78.659958"
       ry="78.749229" />
    <path
       style="fill:#000000;stroke-width:0.11048"
       d="m 131.44647,504.1663 c 0.0633,-0.15702 5.5933,-8.59625 12.28888,-18.75328 l 12.17363,-18.46723 h 5.62775 5.6278 v -4.01615 -4.01615 h 3.84445 3.84443 v 4.00827 4.00822 l 5.66833,0.0914 5.66828,0.0914 -0.98588,1.58511 -0.98591,1.5852 -10.88089,0.0879 -10.88086,0.0879 10.92383,13.38712 c 6.00807,7.36292 11.61807,14.25191 12.46652,15.30883 l 1.54278,1.92162 22.86768,0.002 c 21.74868,0.002 22.84301,-0.0264 22.36213,-0.58297 -0.27811,-0.32203 -4.60084,-5.61021 -9.60615,-11.7513 -9.37429,-11.50147 -9.40132,-11.54355 -8.40296,-13.08307 0.57404,-0.88529 1.69947,0.18239 6.63341,6.29276 2.62356,3.24914 5.20793,6.43466 5.74306,7.0789 2.64524,3.1847 12.01388,14.72799 12.206,15.03924 0.15468,0.25035 -9.02858,0.3558 -31.00399,0.3558 h -31.22376 l -10.32146,-12.88509 c -5.67681,-7.0868 -10.4017,-12.88044 -10.49975,-12.8748 -0.098,0.008 -4.01441,5.76635 -8.70296,12.80148 l -8.52463,12.79114 -3.79246,0.0948 c -2.08585,0.0519 -3.74063,-0.0341 -3.6773,-0.19118 z m 53.4532,-8.41761 c -1.84815,-2.19757 -3.3603,-4.0801 -3.3603,-4.18346 0,-0.10322 2.06847,-0.17782 4.5966,-0.16504 l 4.59663,0.0227 3.41545,4.16069 3.41547,4.16076 h -4.65176 -4.65178 l -3.36031,-3.99556 z m 11.03186,0 c -1.84815,-2.19757 -3.36026,-4.0801 -3.36026,-4.18346 0,-0.10322 2.02307,-0.18775 4.49569,-0.18775 h 4.49573 l 3.3603,3.99557 c 1.84818,2.19758 3.36031,4.08014 3.36031,4.1835 0,0.10322 -2.0231,0.18774 -4.49574,0.18774 h -4.49573 z m 10.77492,-0.21051 -3.41546,-4.16071 h 4.65107 4.65108 l 3.27745,3.87717 c 1.80256,2.13246 3.32759,4.01506 3.38886,4.1835 0.0641,0.17667 -1.84717,0.29663 -4.51305,0.28335 l -4.62447,-0.0227 z m 12.88229,2.26304 c -0.8608,-1.04807 -2.41215,-2.92217 -3.44748,-4.16469 l -1.88243,-2.25906 h 4.82982 c 4.63822,0 4.84952,0.0303 5.32784,0.75305 0.27392,0.41418 1.72034,2.23031 3.21428,4.03594 1.49394,1.80564 2.71623,3.34933 2.71623,3.43042 0,0.0813 -2.06846,0.13928 -4.59657,0.12898 l -4.59664,-0.0191 z m -42.64906,-11.69493 c -1.8134,-2.16288 -3.40964,-4.12073 -3.54718,-4.35084 -0.19549,-0.32698 0.7588,-0.41414 4.36628,-0.39908 l 4.61632,0.0191 3.34299,4.05132 c 1.83867,2.22822 3.39314,4.17743 3.45441,4.33158 0.0614,0.15435 -1.92414,0.28032 -4.41212,0.28032 h -4.5236 z m 13.41031,2.84476 c -1.18002,-1.26436 -5.55788,-6.58047 -5.92558,-7.1956 -0.1955,-0.32698 0.75875,-0.41414 4.36622,-0.39908 l 4.61634,0.0191 3.34302,4.05132 c 1.83864,2.22822 3.39311,4.17743 3.45441,4.33158 0.0615,0.15435 -1.90244,0.28032 -4.36388,0.28032 h -4.47532 z m 8.48933,-2.91494 c -1.79267,-2.18026 -3.25939,-4.12952 -3.25939,-4.33157 0,-0.2492 1.4242,-0.36111 4.42945,-0.34744 l 4.42947,0.0226 3.17583,3.8723 c 1.74672,2.1298 3.29616,4.07877 3.44319,4.33106 0.22127,0.37964 -0.52789,0.45543 -4.34587,0.43946 l -4.61324,-0.0191 z m 10.94832,-0.0871 c -1.83863,-2.22824 -3.39736,-4.1901 -3.4638,-4.35975 -0.0668,-0.1696 0.23451,-0.25791 0.66861,-0.19647 0.57338,0.0813 1.06382,0.63809 1.79229,2.03528 0.55159,1.0579 1.07812,1.91889 1.17006,1.91332 0.0921,-0.008 0.57249,-0.90875 1.06792,-2.0071 l 0.90075,-1.99699 h 1.67276 1.67274 l 3.29708,3.93247 c 1.81342,2.16285 3.40963,4.12072 3.54719,4.35078 0.19552,0.32698 -0.7588,0.41417 -4.36629,0.39912 l -4.61631,-0.0191 -3.343,-4.05127 z m -2.17289,-8.31989 c -1.13524,-2.03949 -1.9959,-3.77639 -1.91255,-3.85985 0.0833,-0.0834 1.88315,-0.10932 3.99958,-0.0568 l 3.84807,0.0944 -1.77427,3.76512 c -0.9758,2.07082 -1.84677,3.76512 -1.93547,3.76512 -0.0886,0 -1.09007,-1.66862 -2.22536,-3.70807 z m -38.83868,-1.3958 c -1.71708,-2.07081 -3.3271,-4.0287 -3.57778,-4.35081 -0.42924,-0.55167 -0.18595,-0.58529 4.18183,-0.57873 l 4.63751,0.008 3.42656,4.14785 c 1.88465,2.28127 3.42661,4.23603 3.42661,4.34379 0,0.10779 -2.01888,0.1961 -4.48637,0.1961 h -4.48634 z m 11.01047,0 c -1.71314,-2.07081 -3.31675,-4.0287 -3.56348,-4.35081 -0.42228,-0.55128 -0.17624,-0.5855 4.18892,-0.58228 l 4.63753,0.004 3.34299,4.0706 c 1.83864,2.23887 3.39314,4.19515 3.45442,4.34742 0.0615,0.15207 -1.92639,0.2769 -4.41705,0.2769 h -4.52845 z m 10.85939,-0.16733 c -1.81338,-2.16283 -3.40962,-4.12072 -3.54715,-4.3508 -0.19474,-0.32547 0.64569,-0.41835 3.78123,-0.41835 h 4.03135 v 4.3508 c 0,3.57516 -0.0864,4.35081 -0.48418,4.35081 -0.26636,0 -1.96784,-1.76959 -3.78125,-3.93246 z m 8.78465,2.79443 1.66528,-1.13805 0.91934,0.86601 c 0.50561,0.47629 0.9193,0.98842 0.9193,1.13803 0,0.14978 -1.16308,0.27198 -2.58465,0.27198 h -2.58462 z m 4.10071,-0.452 -1.24191,-1.55795 0.90759,-0.5992 c 0.49917,-0.3296 1.01035,-0.60021 1.13594,-0.60143 0.12569,-10e-4 0.74759,0.97673 1.38222,2.17323 l 1.15384,2.17538 -1.04792,-0.0153 c -0.8373,-0.0115 -1.29751,-0.32924 -2.28976,-1.57398 z m 9.31672,1.07387 c 0.21899,-0.57123 0.83544,-0.50094 1.04174,0.11868 0.0735,0.22075 -0.17279,0.39738 -0.55362,0.39738 -0.48075,0 -0.62679,-0.15435 -0.48812,-0.51616 z m -16.15106,-2.14693 c 0.12093,-0.6061 0.22012,-2.60269 0.22012,-4.43677 v -3.33483 l 3.25944,1.73431 c 1.79268,0.95386 3.38315,1.85174 3.53441,1.99526 0.25195,0.23897 -5.50815,4.48101 -6.71328,4.94398 -0.43099,0.1658 -0.48285,0.008 -0.30085,-0.90195 z m 22.19613,-1.90287 c -1.97882,-1.19781 -3.52164,-2.30149 -3.42835,-2.45254 0.27279,-0.4419 6.24678,-4.08112 6.41803,-3.90969 0.21596,0.21622 0.83981,7.14852 0.71213,7.91564 -0.0894,0.53668 -0.60981,0.31824 -3.70181,-1.55341 z m -13.91523,-4.31094 c -8.02698,-2.2459 -13.1456,-10.04877 -11.7954,-17.98104 1.6127,-9.47424 10.79437,-15.509 19.95999,-13.11897 5.42654,1.41505 9.56222,5.44942 11.24006,10.96465 0.90766,2.98358 0.74727,7.48534 -0.36978,10.37878 -1.60881,4.16723 -5.77379,8.18643 -9.80001,9.45699 -2.46378,0.77752 -7.00059,0.92471 -9.23482,0.29967 z m -17.42309,-3.05293 c 0.42033,-0.70945 1.10335,-1.8171 1.51784,-2.4613 0.41445,-0.64427 1.1588,-1.82947 1.65405,-2.63376 l 0.90047,-1.46227 2.12686,3.47034 2.12688,3.47044 -1.23693,0.21204 c -0.68033,0.11639 -2.72563,0.32052 -4.54517,0.45324 l -3.3082,0.24122 z m 36.74559,-0.41709 -1.19931,-0.20368 1.85747,-3.42898 c 1.43066,-2.64103 1.94491,-3.33318 2.2379,-3.01212 0.20914,0.22949 1.39106,1.8853 2.62623,3.68 l 2.24574,3.26312 -3.28434,-0.0475 c -1.80641,-0.0265 -3.82405,-0.13928 -4.48369,-0.25111 z m -37.07791,-9.19704 c -1.93055,-0.96342 -3.54258,-1.89433 -3.58225,-2.06862 -0.0712,-0.31369 6.86049,-4.35813 7.06376,-4.12134 0.22012,0.25642 0.46457,7.98684 0.25195,7.96476 -0.12283,-0.0115 -1.80283,-0.81139 -3.73342,-1.7748 z m 39.78161,-3.51269 v -4.02106 l 3.9257,1.84672 c 2.15922,1.0157 3.96509,1.88606 4.01311,1.93416 0.11024,0.11048 -6.93962,4.0065 -7.51431,4.15301 -0.32545,0.083 -0.4245,-0.82881 -0.4245,-3.91283 z m -38.28018,-7.80359 c -1.28543,-1.85947 -2.39434,-3.53101 -2.4642,-3.71451 -0.12799,-0.33608 8.15152,-0.18278 8.49108,0.15702 0.15238,0.15245 -2.95775,6.16751 -3.46443,6.70114 -0.12397,0.1305 -1.27702,-1.28424 -2.56245,-3.14375 z m 35.67131,-1.02185 c -1.1511,-1.84647 -2.04043,-3.40969 -1.9763,-3.47389 0.18748,-0.18775 8.32519,-0.84609 8.48482,-0.68629 0.12378,0.124 -2.87069,5.29719 -4.03215,6.96624 -0.32621,0.46876 -0.69589,0.0496 -2.47637,-2.80606 z m -28.48956,-4.85691 c -0.008,-0.50622 -0.15391,-2.41525 -0.33115,-4.24231 -0.17737,-1.82705 -0.27885,-3.36572 -0.22544,-3.41924 0.0788,-0.079 7.17295,4.0655 7.51779,4.39182 0.12094,0.11448 -6.43176,4.19011 -6.73655,4.19011 -0.11902,0 -0.21976,-0.41417 -0.22469,-0.92038 z m 21.63113,-1.56905 c -1.80556,-0.97527 -3.24247,-1.90601 -3.19317,-2.06831 0.0914,-0.30079 6.46151,-4.81328 6.79468,-4.81328 0.10034,0 0.18271,1.95785 0.18271,4.35083 0,2.39291 -0.11291,4.34025 -0.25083,4.32739 -0.13789,-0.0115 -1.72799,-0.82138 -3.53353,-1.79663 z m -12.93077,-2.41067 c 0,-0.42817 3.45338,-7.48303 3.66298,-7.48303 0.11864,0 0.53805,0.64004 0.93253,1.42238 0.39437,0.7823 1.33206,2.5143 2.08372,3.84884 l 1.36665,2.42638 h -4.02291 c -2.21263,0 -4.02297,-0.0967 -4.02297,-0.21431 z"
       id="path1706" />
    <text
       xml:space="preserve"
       style="font-style:normal;font-variant:normal;font-weight:bold;font-stretch:normal;font-size:28.0848px;line-height:1.25;font-family:sans-serif;-inkscape-font-specification:'sans-serif Bold';text-align:center;letter-spacing:0px;word-spacing:0px;text-anchor:middle;display:inline;fill:#000000;fill-opacity:1;stroke:none;stroke-width:0.264583"
       x="192.53854"
       y="543.21613"
       id="text4765-3"
       transform="scale(0.999433,1.0005673)"><tspan
         sodipodi:role="line"
         id="pwr_solar"
         style="font-style:normal;font-variant:normal;font-weight:bold;font-stretch:normal;font-size:28.0848px;font-family:sans-serif;-inkscape-font-specification:'sans-serif Bold';text-align:center;text-anchor:middle;stroke-width:0.264583"
         x="192.53854"
         y="543.21613">1234 W</tspan></text>
  </g>
  <g
     inkscape:groupmode="layer"
     id="layer3"
     inkscape:label="Inverter"
     style="display:inline"
     transform="translate(-113.17944,-171.44852)">
    <ellipse
       style="display:inline;fill:#ffffff;stroke:#000000;stroke-width:3;stroke-miterlimit:4;stroke-dasharray:none"
       id="path1114"
       cx="363.75717"
       cy="372.12918"
       rx="78.659958"
       ry="78.749229" />
    <path
       style="display:inline;fill:#000000;stroke-width:0.126081"
       d="m 383.06681,442.74948 c -0.58597,-0.64824 -0.80592,-2.06413 -0.91,-5.85849 l -0.13714,-5.00359 -4.2442,-0.13891 -4.24416,-0.13928 0.25269,2.24396 c 0.21332,1.89546 0.0837,2.41327 -0.83597,3.33381 -1.05844,1.05964 -1.32262,1.08738 -9.52337,0.99967 -9.58682,-0.10246 -9.33123,0.008 -9.34298,-4.02756 l -0.008,-2.51078 -11.46482,-0.0596 c -6.30559,-0.0303 -11.62597,-0.0952 -11.82302,-0.13776 -4.99726,-1.08879 -9.73998,-5.25969 -11.58041,-10.18414 -1.19305,-3.19235 -1.22015,-7.45196 -0.25195,-39.59445 0.38029,-12.62558 0.81963,-27.36737 0.97637,-32.75951 0.15679,-5.39219 0.50765,-11.84845 0.77979,-14.34725 0.83432,-7.66059 3.92108,-15.77044 8.19118,-21.52087 2.24256,-3.01996 2.74552,-3.47892 5.30613,-4.84225 1.64931,-0.87811 3.4144,-1.07506 15.04755,-1.67876 10.65084,-0.55277 15.65329,-0.58065 26.07689,-0.14519 7.09384,0.29623 14.01072,0.74569 15.37088,0.9988 4.61198,0.85842 7.83462,4.15263 11.86046,12.12393 2.97141,5.88346 4.40663,11.89221 4.75659,19.91384 0.75679,17.34687 1.79689,54.77229 1.85892,66.88688 l 0.0696,13.62988 -1.19425,2.39121 c -1.54007,3.0837 -4.88689,6.34816 -8.2126,8.01056 -2.29463,1.14693 -3.19,1.31512 -7.00209,1.31512 h -4.37095 v 5.23355 c 0,4.86604 -0.0746,5.28582 -1.0617,5.97804 -1.41573,0.99272 -3.38816,0.94258 -4.33998,-0.11029 z m -14.30231,-10.5034 c 0.1501,-0.45306 -1.02606,-0.59779 -4.85768,-0.59779 -4.65328,0 -5.62021,0.23212 -4.72105,1.13208 0.60681,0.60747 9.36235,0.11905 9.57873,-0.53429 z m 29.51608,-6.82367 c 3.65181,-1.66551 6.1567,-5.96555 5.86425,-10.06689 l -0.15125,-2.11948 -3.20676,-0.14119 -3.20679,-0.1412 -1.40622,2.78891 c -1.67645,3.32489 -4.9964,6.54099 -7.53949,7.30381 -1.31258,0.39355 -8.53133,0.50575 -25.24526,0.39195 l -23.40712,-0.1597 -2.67841,-1.25734 c -2.91858,-1.37012 -4.59811,-3.22718 -6.10803,-6.75372 l -0.97241,-2.27109 h -3.36085 c -2.85692,0 -3.37088,0.12517 -3.42768,0.83692 -0.37357,4.68077 1.50469,9.02287 4.74265,10.96482 1.23792,0.74247 2.63857,1.45747 3.11251,1.58901 0.47398,0.13165 15.2851,0.17611 32.91366,0.0986 30.48864,-0.13393 32.15064,-0.18507 34.07711,-1.06401 z m -10.30372,-7.875 c 1.71951,-0.89021 3.64252,-3.50033 3.0304,-4.11313 -0.26711,-0.26742 -11.19978,-0.396 -27.36724,-0.32206 -21.31615,0.0978 -26.96464,0.25073 -27.12541,0.73372 -0.11178,0.3357 0.65121,1.46543 1.69537,2.51077 l 1.89852,1.90066 h 23.24833 c 19.62586,0 23.46204,-0.11066 24.62003,-0.71015 z m -58.0812,-19.01727 c 0.16517,-5.06344 0.51198,-20.07419 0.77033,-33.35733 0.55569,-28.56925 0.73235,-32.42443 1.73059,-37.76916 0.78329,-4.19412 2.47813,-9.41441 4.09471,-12.61206 1.11338,-2.20233 0.90326,-2.58682 -0.80223,-1.46809 -2.8843,1.89197 -7.23062,9.90599 -8.8853,16.3831 -1.05429,4.12685 -1.17397,6.18825 -2.115,36.42268 -0.38062,12.231 -0.83204,26.59617 -1.00299,31.92258 l -0.31067,9.68441 h 3.11005 3.11004 z m 62.68945,0.4782 c -0.15753,-4.80036 -0.40085,-13.78528 -0.54087,-19.96658 -0.7418,-32.73442 -1.28613,-47.30068 -1.88458,-50.4295 -1.32814,-6.94421 -5.01044,-15.22711 -7.11873,-16.01268 -0.56175,-0.20938 -5.07959,-0.63905 -10.03959,-0.95505 -10.71681,-0.68274 -26.91976,0.0226 -28.89161,1.2618 -1.40295,0.88004 -4.46448,7.32668 -5.7477,12.10287 -1.53579,5.71643 -1.902,11.56875 -2.4233,38.72887 -0.27014,14.07225 -0.62564,29.72867 -0.79004,34.79207 l -0.29894,9.20613 h 29.01081 29.0108 z m -54.00205,6.06342 c -0.62448,-0.62519 -0.75064,-2.14017 -0.75064,-9.01245 0,-7.3957 0.0917,-8.34383 0.87359,-9.05243 0.75962,-0.68822 2.30796,-0.79146 11.86842,-0.79146 10.04495,0 11.06315,0.0756 11.78542,0.87454 0.67046,0.74169 0.79061,2.11121 0.79061,9.01246 0,7.27649 -0.0925,8.22167 -0.8736,8.92937 -0.7598,0.68839 -2.31076,0.79147 -11.90834,0.79147 -9.39468,0 -11.14633,-0.11142 -11.78546,-0.7515 z m 19.31273,-9.05243 v -4.54328 h -7.40437 -7.40433 v 4.54328 4.54331 h 7.40433 7.40437 z m 46.14386,4.18459 c -0.16593,-4.14273 -0.61443,-17.96986 -0.99661,-30.72695 -1.03498,-34.54414 -1.07155,-35.2148 -2.15299,-39.46286 -1.71107,-6.72128 -6.41576,-15.3524 -9.13598,-16.76066 -1.69053,-0.87519 -1.73353,-0.4097 -0.23604,2.55685 1.6151,3.19983 3.45244,9.29629 4.06695,13.49443 0.50565,3.4542 1.14416,22.3386 1.70593,50.45442 0.14705,7.3649 0.39464,16.67264 0.54995,20.6839 l 0.28226,7.29322 h 3.10917 3.10914 z"
       id="path2042" />
  </g>
  <g
     inkscape:groupmode="layer"
     id="layer7"
     inkscape:label="Home"
     transform="translate(-113.17944,-171.44852)"
     style="display:inline">
    <ellipse
       style="display:inline;fill:#ffffff;stroke:#000000;stroke-width:3;stroke-miterlimit:4;stroke-dasharray:none"
       id="path1114-5-5-2-8"
       cx="193.3394"
       cy="251.69775"
       rx="78.659958"
       ry="78.749229" />
    <path
       style="fill:#000000;stroke-width:0.207882"
       d="m 153.87806,275.53527 c -0.25725,-0.25755 -0.46769,-10.64033 -0.46769,-23.07287 v -22.60469 l 11.75021,-9.86861 c 21.10937,-17.72891 27.87922,-23.32035 28.23555,-23.32035 0.35654,0 7.12685,5.5919 28.24498,23.32834 l 11.75967,9.87651 -0.18482,22.88936 -0.1848,22.88933 -15.95925,0.18889 -15.95922,0.18889 v -11.60114 -11.60112 h -7.71656 -7.71652 v 11.58794 11.58799 h -15.66698 c -8.61675,0 -15.87738,-0.21089 -16.13457,-0.46822 z m -12.25293,-42.51259 c -0.46301,-0.46347 -0.84183,-1.22634 -0.84183,-1.69527 0,-0.46887 3.47247,-3.9093 7.71654,-7.64531 l 7.71657,-6.79277 v -10.47401 -10.47405 h 6.66431 6.66424 v 4.21383 c 0,2.31754 0.17777,4.21376 0.39536,4.21376 0.2175,0 3.45314,-2.63417 7.19047,-5.85366 11.00275,-9.47841 14.8357,-12.40616 16.24196,-12.40616 1.73602,0 12.68251,9.15342 44.79732,37.45923 4.31138,3.80006 7.83886,7.31678 7.83886,7.81492 0,1.29016 -1.9096,2.70737 -3.05508,2.26734 -0.53266,-0.20483 -7.87614,-6.34398 -16.31891,-13.64312 -28.80855,-24.90612 -32.77558,-28.27998 -33.2517,-28.27998 -0.26179,0 -5.49598,4.33932 -11.63116,9.64294 -31.78093,27.47326 -37.7265,32.49511 -38.47235,32.49511 -0.44709,0 -1.19162,-0.37931 -1.6546,-0.8428 z"
       id="path2017" />
    <text
       xml:space="preserve"
       style="font-style:normal;font-variant:normal;font-weight:bold;font-stretch:normal;font-size:28.0848px;line-height:1.25;font-family:sans-serif;-inkscape-font-specification:'sans-serif Bold';text-align:center;letter-spacing:0px;word-spacing:0px;text-anchor:middle;display:inline;fill:#000000;fill-opacity:1;stroke:none;stroke-width:0.264583"
       x="192.55988"
       y="302.43164"
       id="text4765"
       transform="scale(0.99922606,1.0007745)"><tspan
         sodipodi:role="line"
         id="pwr_home"
         style="font-style:normal;font-variant:normal;font-weight:bold;font-stretch:normal;font-size:28.0848px;font-family:sans-serif;-inkscape-font-specification:'sans-serif Bold';text-align:center;text-anchor:middle;stroke-width:0.264583"
         x="192.55988"
         y="302.43164">1234 W</tspan></text>
  </g>
  <script
     type="text/javascript"
     id="script46"><![CDATA[

document.SetBatteryStateOfCharge = function(percent, nom_capacity)
{
	var rect_max_width = 75.0;

	var width = (rect_max_width/100.0)*percent;

	document.getElementById("bat_state_text").innerHTML = String(percent) + " %";

	document.getElementById("bat_state_rect").setAttribute("width", width);
	
	energy = nom_capacity * percent / 100;
	document.getElementById("bat_energy").innerHTML = String(energy.toFixed(1));
}

document.Animation = function(Power, bubble, invert, MaxPower) 
{
	var DirStr = "";

	switch(bubble)
	{
		case "Home":
			x_dir     = true;
			y_dir     = true;
			bubble_id = "bubble_home_anim";
			text_id   = "pwr_home";
			break;
		case "Battery":
			x_dir     = false;
			y_dir     = false;
			bubble_id = "bubble_bat_anim";
			text_id   = "pwr_bat";
			break;
		case "Solar":
			x_dir     = true;
			y_dir     = false;
			bubble_id = "bubble_solar_anim";
			text_id   = "pwr_solar";
			break;
		case "Grid":
			x_dir     = false;
			y_dir     = true;
			bubble_id = "bubble_grid_anim";
			text_id   = "pwr_grid";
			break;
		default:
			return;
	}
	
	if( MaxPower == 0 ) // div by zero
		MaxPower = 10000; // 10 kW

	
	var y = 40;
	var x = y * 1.5;

	if( x_dir == false )
		x = -x;

	if( y_dir == false )
		y = -y;

	if( invert )
		Power = Power * (-1);

	if (Power > 0)
		DirStr = "0, 0; " + x + ", " + y; 
	else if (Power < 0)
		DirStr = x + ", " + y + "; 0, 0"; 
	else
		DirStr = x + ", " + y + "; " + x + ", " + y; 
		
	TmpPower = Math.abs(Power);
	if( TmpPower > MaxPower )
		TmpPower = MaxPower;
	max_speed = 0.3; // 0.4 s bubble speed
	min_speed = 3.0; // min bubble speed 3 seconds
	speed = (TmpPower/MaxPower) * (max_speed-min_speed) + min_speed;
	speed = String(speed) + "s";
	
	document.getElementById(bubble_id).setAttribute("values", DirStr);
	document.getElementById(bubble_id).setAttribute("dur", speed);
	
	document.getElementById(text_id).innerHTML = String(Math.abs(Math.round(Power))) + " W";

}

]]></script>
</svg>
